<svg xmlns="http://www.w3.org/2000/svg" width="153.27" height="36.54" viewBox="0 0 153.27 36.54"><g id="Layer_2" data-name="Layer 2"><g id="Layer_1-2" data-name="Layer 1"><g><g><path d="M109.88,13.51a7.22,7.22,0,0,1,7.61-7.64,7.36,7.36,0,0,1,7.73,7.67,7,7,0,0,1-7.12,7.38,5.45,5.45,0,0,1-4.78-2.46v8.19h-3.44V13.51Zm11.86-.11a4.21,4.21,0,1,0-8.42,0,4.21,4.21,0,1,0,8.42,0" style="fill: #373738"></path><path d="M126.89,13.4a7.7,7.7,0,0,1,15.4,0,7.7,7.7,0,0,1-15.4,0m11.89,0a4.21,4.21,0,1,0-8.41,0,4.21,4.21,0,1,0,8.41,0" style="fill: #373738"></path><path d="M107.62,13.39A7.23,7.23,0,0,0,101.23,6,9.94,9.94,0,0,0,100,5.87a7.2,7.2,0,0,0-.81,0H99L98.42,6l-.17,0A1.4,1.4,0,0,0,98,6.1c-3.45.78-5.79,3.53-7.94,6.15-.77.93-1.5,1.85-2.26,2.66-1.59,1.68-3.26,2.89-5.38,2.8a4.08,4.08,0,0,1-4.22-4.32,4.21,4.21,0,1,1,8.42,0,4.68,4.68,0,0,1-.12,1.07,36.11,36.11,0,0,0,2.4-2.74c.38-.46.76-.93,1.16-1.4V0H86.59V8.33a5.43,5.43,0,0,0-4.77-2.46,7,7,0,0,0-7.12,7.38,7.35,7.35,0,0,0,7.72,7.67,9.87,9.87,0,0,0,4.89-1.56,19.33,19.33,0,0,0,4.13-3.7l.93-1.08c1.92-2.25,3.67-4.42,5.81-5.24A4.12,4.12,0,0,1,99.7,9H100a5,5,0,0,1,1.24.15A3.77,3.77,0,0,1,104,11.86H96.44c-.25.19-3.75,4-3.78,4A7.36,7.36,0,0,0,100,20.92a7.24,7.24,0,0,0,7.06-4.49h-3.68A4,4,0,0,1,100,17.79a3.9,3.9,0,0,1-4.08-3.18h11.71V13.39Z" style="fill: #373738"></path><polygon points="15.54 5.86 15.54 0.74 19.18 0.74 19.18 5.86 22.43 5.86 22.43 8.78 19.18 8.78 19.18 20.92 15.51 20.92 15.51 8.78 12.59 8.78 12.59 5.86 15.54 5.86" style="fill: #ea6425"></polygon><path d="M0,16.32H3.47c0,.95.87,1.59,2.55,1.59s2.52-.72,2.52-1.59c0-1.1-1.28-1.25-2.81-1.45C3.53,14.58.29,14.21.29,10.7.29,7.78,2.52,5.87,6,5.87s5.64,2,5.73,4.49H8.28C8.19,9.49,7.38,8.88,6,8.88s-2.26.72-2.26,1.56c0,1.1,1.3,1.28,2.84,1.48,1.91.26,5.41.64,5.41,4.19,0,2.9-2.35,4.81-6,4.81S.09,19,0,16.32" style="fill: #ea6425"></path><path d="M23.66,13.4a7.34,7.34,0,0,1,7.7-7.53,7.34,7.34,0,0,1,7.69,7.53,7.34,7.34,0,0,1-7.69,7.52,7.34,7.34,0,0,1-7.7-7.52m11.89,0a4.21,4.21,0,1,0-8.42,0,4.21,4.21,0,1,0,8.42,0" style="fill: #ea6425"></path><path d="M41.31,13.48c0-4.77,2.83-7.23,7.06-7.23s7.06,2.43,7.06,7.23v7.44H52V13.48c0-2.72-1.44-4-3.61-4s-3.62,1.3-3.62,4v7.44H41.31Z" style="fill: #ea6425"></path><path d="M57.68,13.4a7.35,7.35,0,0,1,7.7-7.53A7.3,7.3,0,0,1,73,13.4v1.21H61.3a3.92,3.92,0,0,0,4.08,3.18,4,4,0,0,0,3.39-1.36h3.67a7.24,7.24,0,0,1-7.06,4.49,7.34,7.34,0,0,1-7.7-7.52m11.69-1.54a4.21,4.21,0,0,0-8,0Z" style="fill: #ea6425"></path><polygon points="146.38 5.86 146.38 0.74 150.02 0.74 150.02 5.86 153.28 5.86 153.28 8.78 150.02 8.78 150.02 20.92 146.35 20.92 146.35 8.78 143.43 8.78 143.43 5.86 146.38 5.86" style="fill: #373738"></polygon></g><g><path d="M10,33.74A2.9,2.9,0,0,1,9.72,35a2,2,0,0,1-.77.84,2,2,0,0,1-1.09.3,2.07,2.07,0,0,1-1.11-.3A2,2,0,0,1,6,35a3.18,3.18,0,0,1,0-2.61,2.14,2.14,0,0,1,.76-.84,2.07,2.07,0,0,1,1.11-.29A2,2,0,0,1,9,31.59a2.09,2.09,0,0,1,.77.84A2.91,2.91,0,0,1,10,33.74Zm-.71,0a2.34,2.34,0,0,0-.19-1,1.39,1.39,0,0,0-.51-.6,1.39,1.39,0,0,0-1.47,0,1.39,1.39,0,0,0-.51.6,2.35,2.35,0,0,0-.18,1,2.42,2.42,0,0,0,.18,1,1.51,1.51,0,0,0,.51.6,1.45,1.45,0,0,0,1.47,0,1.51,1.51,0,0,0,.51-.6A2.41,2.41,0,0,0,9.29,33.74Zm-1.68.83h.71l.5.65.23.29.79,1H9.11l-.53-.69L8.4,35.6Z" style="fill: #373738"></path><path d="M15.25,31.36H16v3.13a1.72,1.72,0,0,1-.23.88,1.6,1.6,0,0,1-.66.6,2.14,2.14,0,0,1-1,.22,2.07,2.07,0,0,1-1-.22,1.6,1.6,0,0,1-.66-.6,1.63,1.63,0,0,1-.23-.88V31.36h.71v3.07a1.1,1.1,0,0,0,.15.57,1,1,0,0,0,.4.4,1.35,1.35,0,0,0,.62.14,1.39,1.39,0,0,0,.63-.14,1,1,0,0,0,.4-.4,1.1,1.1,0,0,0,.14-.57Z" style="fill: #373738"></path><path d="M18.72,36.11H18l1.71-4.75h.83l1.71,4.75h-.76l-1.34-3.89h0Zm.13-1.86h2.47v.61H18.85Z" style="fill: #373738"></path><path d="M24.2,36.11V31.36h1.7a1.89,1.89,0,0,1,.91.19,1.23,1.23,0,0,1,.55.53,1.74,1.74,0,0,1,0,1.54,1.19,1.19,0,0,1-.55.51,2.06,2.06,0,0,1-.92.19H24.61V33.7h1.22a1.53,1.53,0,0,0,.57-.1.75.75,0,0,0,.32-.29,1,1,0,0,0,.1-.46,1,1,0,0,0-.1-.47.69.69,0,0,0-.33-.3,1.29,1.29,0,0,0-.57-.1h-.9v4.13ZM26.55,34l1.17,2.14h-.81L25.76,34Z" style="fill: #373738"></path><path d="M29.49,32v-.62h3.68V32H31.68v4.13H31V32Z" style="fill: #373738"></path><path d="M35.16,36.11v-.47L37.66,32H35.14v-.62h3.4v.48L36,35.5h2.52v.61Z" style="fill: #373738"></path><path d="M46.93,34.06v-.62h3.14v.62Zm1.25,1.26V32.18h.63v3.14Z" style="fill: #ea6425"></path><path d="M61.79,32.86a1.21,1.21,0,0,0-.18-.38,1,1,0,0,0-.27-.28A1.08,1.08,0,0,0,61,32a1.49,1.49,0,0,0-.43-.06,1.32,1.32,0,0,0-.73.21,1.45,1.45,0,0,0-.51.6,2.38,2.38,0,0,0-.18,1,2.33,2.33,0,0,0,.18,1,1.43,1.43,0,0,0,.52.61,1.33,1.33,0,0,0,.74.2,1.45,1.45,0,0,0,.68-.15,1.21,1.21,0,0,0,.45-.45,1.45,1.45,0,0,0,.16-.68l.18,0H60.69v-.59h1.87v.54a2,2,0,0,1-.25,1,1.83,1.83,0,0,1-.7.68,2.15,2.15,0,0,1-1,.24A2,2,0,0,1,58.69,35a2.93,2.93,0,0,1-.27-1.3,3.21,3.21,0,0,1,.16-1A2.18,2.18,0,0,1,59,32a2,2,0,0,1,.67-.49,2.15,2.15,0,0,1,.85-.16,2.09,2.09,0,0,1,.72.11,2,2,0,0,1,.59.32,1.81,1.81,0,0,1,.67,1.13Z" style="fill: #373738"></path><path d="M64.78,36.11V31.36h1.69a1.93,1.93,0,0,1,.92.19,1.34,1.34,0,0,1,.55.53,1.59,1.59,0,0,1,.18.77,1.49,1.49,0,0,1-.19.77,1.21,1.21,0,0,1-.54.51,2.09,2.09,0,0,1-.92.19H65.19V33.7H66.4a1.49,1.49,0,0,0,.57-.1.7.7,0,0,0,.32-.29,1,1,0,0,0,.1-.46,1,1,0,0,0-.1-.47.67.67,0,0,0-.32-.3,1.37,1.37,0,0,0-.58-.1h-.9v4.13ZM67.12,34l1.18,2.14h-.82L66.33,34Z" style="fill: #373738"></path><path d="M70.7,36.11h-.76l1.71-4.75h.83l1.71,4.75h-.76l-1.35-3.89h0Zm.13-1.86H73.3v.61H70.83Z" style="fill: #373738"></path><path d="M80,31.36v4.75h-.65l-2.42-3.48h0v3.48h-.72V31.36h.66l2.42,3.49h0V31.36Z" style="fill: #373738"></path><path d="M83.08,31.36v4.75h-.71V31.36Z" style="fill: #373738"></path><path d="M85.2,32v-.62h3.68V32H87.4v4.13h-.72V32Z" style="fill: #373738"></path><path d="M91,36.11V31.36h3V32H91.71v1.45h2.11V34H91.71V35.5H94v.61Z" style="fill: #373738"></path><path d="M102.4,34.06v-.62h3.14v.62Zm1.26,1.26V32.18h.62v3.14Z" style="fill: #ea6425"></path><path d="M114.05,31.36h.87l1.52,3.7h0l1.51-3.7h.87v4.75h-.68V32.67h0l-1.4,3.44h-.57l-1.4-3.44h0v3.44h-.68Z" style="fill: #373738"></path><path d="M121.63,36.11h-.76l1.71-4.75h.82l1.72,4.75h-.77L123,32.22h0Zm.12-1.86h2.47v.61h-2.47Z" style="fill: #373738"></path><path d="M127.11,36.11V31.36h1.69a2,2,0,0,1,.92.19,1.26,1.26,0,0,1,.54.53,1.49,1.49,0,0,1,.19.77,1.6,1.6,0,0,1-.19.77,1.21,1.21,0,0,1-.54.51,2.09,2.09,0,0,1-.92.19h-1.29V33.7h1.22a1.53,1.53,0,0,0,.57-.1.7.7,0,0,0,.32-.29,1,1,0,0,0,.1-.46,1,1,0,0,0-.1-.47.72.72,0,0,0-.32-.3,1.37,1.37,0,0,0-.58-.1h-.9v4.13ZM129.45,34l1.18,2.14h-.82L128.66,34Z" style="fill: #373738"></path><path d="M132.63,36.11V31.36h1.74a1.93,1.93,0,0,1,.84.17,1.17,1.17,0,0,1,.49.44,1.25,1.25,0,0,1,.17.64,1.09,1.09,0,0,1-.11.5,1,1,0,0,1-.29.32,1.2,1.2,0,0,1-.4.18v0a1,1,0,0,1,.46.15,1.1,1.1,0,0,1,.37.4,1.36,1.36,0,0,1,0,1.28,1.24,1.24,0,0,1-.52.46,2.18,2.18,0,0,1-.91.16Zm.71-2.69h1a.89.89,0,0,0,.44-.1.71.71,0,0,0,.31-.26.64.64,0,0,0,.11-.39.65.65,0,0,0-.2-.5.91.91,0,0,0-.64-.2h-1Zm0,2.08h1a1.13,1.13,0,0,0,.74-.2.63.63,0,0,0,.22-.5.81.81,0,0,0-.11-.41.8.8,0,0,0-.33-.3,1,1,0,0,0-.49-.11h-1.07Z" style="fill: #373738"></path><path d="M138.21,36.11V31.36h.72V35.5h2.15v.61Z" style="fill: #373738"></path><path d="M143.2,36.11V31.36h3V32h-2.26v1.45H146V34h-2.11V35.5h2.29v.61Z" style="fill: #373738"></path></g></g></g></g></svg>